<?xml version="1.0" standalone="no"?>
<!DOCTYPE svg PUBLIC "-//W3C//DTD SVG 20010904//EN"
 "http://www.w3.org/TR/2001/REC-SVG-20010904/DTD/svg10.dtd">
<svg version="1.0" xmlns="http://www.w3.org/2000/svg"
 width="425.000000pt" height="425.000000pt" viewBox="0 0 425.000000 425.000000"
 preserveAspectRatio="xMidYMid meet">
<metadata>
Created by potrace 1.14, written by Peter Selinger 2001-2017
</metadata>
<g transform="translate(0.000000,425.000000) scale(0.100000,-0.100000)"
fill="#000000" stroke="none">
<path d="M1225 3480 c-30 -11 -47 -35 -52 -74 -4 -29 -1 -35 14 -35 10 0 36 0
59 -1 23 -1 50 1 62 4 21 7 20 22 -3 78 -9 22 -54 37 -80 28z"/>
<path d="M2714 3480 c-30 -11 -46 -36 -47 -72 l-2 -33 53 0 c28 0 52 -3 52 -8
0 -4 9 -3 19 3 23 12 22 47 -2 83 -18 28 -44 37 -73 27z"/>
<path d="M3033 3479 c-30 -11 -54 -50 -51 -82 2 -27 3 -27 76 -26 l73 1 -6 36
c-8 54 -50 87 -92 71z"/>
<path d="M1526 3455 c-31 -29 -37 -84 -8 -86 9 -1 22 0 27 1 6 1 27 2 48 2 34
-1 37 1 37 28 0 15 -8 37 -17 49 -26 31 -57 33 -87 6z"/>
<path d="M1161 3288 c-1 -18 -2 -40 -2 -48 -1 -8 -8 -55 -16 -105 -9 -49 -17
-100 -18 -112 -2 -11 -11 -47 -20 -80 -9 -32 -17 -59 -17 -60 1 -2 -4 -17 -9
-35 -6 -18 -12 -44 -15 -57 -3 -13 -11 -39 -19 -57 -8 -19 -12 -34 -10 -34 2
0 -2 -12 -10 -27 -8 -15 -12 -30 -9 -35 3 -4 0 -8 -5 -8 -6 0 -10 -3 -10 -7 1
-5 0 -11 -1 -15 -1 -5 -3 -11 -4 -15 -5 -23 -30 -91 -42 -113 -7 -14 -29 -58
-49 -98 -77 -157 -165 -283 -278 -394 -59 -60 -111 -108 -116 -108 -10 0 -147
-82 -168 -100 -7 -6 -13 -8 -13 -4 0 3 -6 2 -12 -3 -13 -11 -171 -73 -198 -78
-27 -6 -68 -24 -74 -33 -3 -5 -3 -18 0 -29 7 -24 10 -23 175 25 111 33 294
131 363 194 11 10 26 18 33 18 8 0 11 5 8 10 -3 6 0 10 7 10 7 0 19 10 27 22
l13 22 14 -25 c7 -13 13 -18 14 -12 0 7 5 12 12 10 7 -1 15 14 18 38 6 40 28
85 42 85 5 0 8 7 8 16 0 8 4 13 8 10 4 -2 7 -27 6 -55 -2 -44 0 -51 17 -51 25
0 28 10 32 105 2 73 6 85 39 139 l38 60 -1 -85 c-2 -137 0 -149 17 -156 9 -3
19 0 24 7 4 6 7 78 6 158 -1 127 2 155 21 209 12 35 25 69 30 75 4 7 8 19 9
26 2 8 5 16 8 20 7 6 8 -25 6 -265 0 -100 3 -184 7 -186 5 -3 15 0 23 6 13 10
15 52 15 282 l0 270 35 122 c19 68 37 123 41 123 3 0 5 -169 6 -375 0 -207 2
-378 5 -380 3 -3 18 0 35 5 l30 11 2 97 c0 53 1 108 0 122 0 14 0 41 0 60 1
19 1 51 0 70 -1 19 -1 73 0 120 1 47 1 90 1 95 0 6 0 57 0 115 0 126 0 116 -1
261 -1 126 5 166 24 150 9 -7 12 -146 11 -538 -1 -346 3 -530 9 -535 6 -3 17
0 24 8 8 8 19 12 24 9 11 -7 10 -25 10 379 l1 320 26 23 c15 13 43 28 62 33
70 20 65 47 65 -342 l0 -353 22 -1 c13 -1 28 5 34 13 9 10 12 131 11 434 0
300 3 419 10 417 18 -6 19 -30 21 -440 1 -213 5 -390 9 -393 4 -4 16 -4 27 0
16 5 21 15 21 43 3 203 -1 576 -5 583 -4 5 -4 9 -2 9 3 0 20 -30 38 -67 l34
-68 0 -228 c-1 -234 4 -267 36 -234 11 10 14 56 13 205 -1 106 0 192 1 192 1
0 15 -19 31 -42 28 -40 29 -45 31 -177 1 -168 1 -160 16 -157 28 4 32 18 31
125 l-1 111 26 -22 c39 -35 41 -39 39 -103 -2 -58 -1 -60 22 -60 22 0 25 4 25
35 0 19 5 35 10 35 17 -1 75 -39 75 -50 0 -11 -159 -78 -185 -78 -8 0 -15 -4
-15 -9 0 -5 -4 -7 -9 -3 -15 9 -190 -61 -238 -95 -23 -17 -52 -33 -63 -35 -11
-2 -24 -6 -28 -9 -5 -3 -19 -7 -33 -9 -86 -16 -415 -134 -515 -185 -21 -11
-42 -20 -47 -21 -4 0 -24 -8 -45 -17 -20 -10 -39 -18 -42 -19 -29 -10 -51 -20
-81 -36 -20 -10 -39 -16 -43 -12 -3 3 -6 1 -6 -5 0 -7 -6 -12 -13 -12 -8 0
-50 -18 -95 -40 -44 -22 -85 -40 -91 -40 -6 0 -11 -4 -11 -10 0 -5 -8 -10 -18
-10 -10 0 -22 -4 -28 -8 -5 -5 -63 -30 -129 -56 -66 -27 -144 -60 -174 -74
-30 -14 -61 -25 -68 -25 -7 0 -13 -5 -13 -10 0 -6 -3 -7 -7 -4 -10 11 -32 -13
-26 -29 6 -16 14 -15 133 2 85 12 174 17 300 17 124 0 162 -2 320 -18 30 -3
120 -17 200 -30 80 -14 159 -27 175 -29 17 -3 44 -7 60 -11 17 -4 43 -8 58
-11 15 -2 37 -8 47 -14 11 -6 20 -9 20 -6 0 2 24 -2 53 -10 62 -17 68 -19 127
-33 25 -5 64 -17 88 -25 23 -8 42 -13 42 -10 0 2 10 -1 23 -8 12 -7 25 -12 28
-13 3 0 40 -11 82 -25 75 -25 98 -44 55 -47 -11 -1 -24 -6 -27 -11 -3 -5 -53
-32 -111 -61 -287 -143 -484 -251 -525 -288 -11 -10 -44 -34 -73 -53 -28 -19
-52 -38 -52 -42 0 -5 29 -8 65 -8 37 0 65 4 65 10 0 6 6 10 14 10 8 0 16 4 18
8 4 10 96 72 108 72 4 0 10 4 12 9 3 9 216 132 233 135 6 1 26 10 45 21 19 11
53 29 75 40 22 11 42 22 45 25 3 3 28 16 55 30 28 13 52 27 55 30 6 6 31 20
101 56 30 15 62 34 72 42 9 8 17 11 17 6 0 -5 4 -4 8 1 4 6 20 19 36 29 15 10
24 21 20 26 -15 13 -337 115 -394 124 -14 2 -36 7 -50 11 l-26 6 2 272 c0 150
1 277 2 283 2 11 136 43 207 48 22 2 78 7 125 11 47 5 128 8 180 9 194 0 485
-34 492 -57 4 -10 3 -533 -1 -563 0 -6 -26 -16 -56 -22 -81 -17 -201 -64 -350
-139 -164 -83 -260 -135 -266 -145 -3 -5 -9 -9 -13 -8 -8 1 -139 -71 -146 -81
-3 -3 -32 -21 -65 -40 -98 -55 -345 -234 -345 -250 0 -5 24 -9 53 -9 52 0 58
3 115 50 6 6 12 7 12 3 0 -4 4 -2 8 4 7 11 81 69 129 100 10 7 41 28 68 48 28
19 61 40 73 45 40 17 167 93 170 102 2 4 11 8 21 8 9 0 21 4 26 9 19 18 185
102 185 94 0 -4 4 -3 8 2 12 17 124 64 138 58 32 -12 17 -26 -90 -83 -43 -23
-91 -50 -105 -60 -14 -10 -80 -53 -146 -96 -104 -68 -251 -179 -294 -221 -8
-8 -24 -21 -37 -30 -13 -8 -24 -19 -24 -24 0 -11 107 -12 112 -1 3 7 129 109
183 147 15 11 35 27 44 36 9 8 41 30 71 49 30 19 84 53 120 75 36 23 85 53
110 66 25 13 47 27 48 32 2 4 9 7 17 7 7 0 18 7 25 15 7 8 16 12 21 9 5 -3 9
0 9 5 0 6 4 11 9 11 5 0 58 23 118 51 59 28 117 54 128 59 32 14 174 58 245
76 66 16 76 18 140 28 19 3 59 10 89 16 29 5 57 7 62 4 5 -3 9 -1 9 4 0 5 6 9
13 10 24 1 102 11 132 17 17 3 48 7 70 9 22 3 69 8 105 12 157 17 453 7 575
-21 33 -7 41 7 41 66 l0 56 -50 18 c-28 10 -72 29 -97 42 -26 13 -50 23 -54
23 -3 0 -34 13 -68 29 -104 48 -172 76 -342 141 -33 12 -73 28 -90 35 -45 19
-117 46 -145 55 -14 5 -63 22 -110 40 -109 40 -418 122 -430 115 -6 -4 -10 -2
-10 3 0 5 -30 15 -67 22 -38 7 -77 15 -88 17 -11 3 -36 6 -55 8 -19 2 -35 5
-35 6 0 3 -70 11 -205 24 -57 6 -357 7 -447 1 -29 -2 -53 -2 -53 -1 0 1 30 12
68 25 72 24 141 52 184 74 28 15 54 12 98 -11 14 -7 30 -13 37 -13 27 0 21 66
-8 75 -20 7 -15 35 6 35 7 0 18 7 25 16 8 8 21 19 30 24 15 8 17 2 18 -63 0
-100 -1 -97 25 -97 24 0 26 6 27 145 0 11 0 33 0 48 0 17 11 38 27 53 14 13
27 24 28 24 0 0 1 -57 1 -127 -1 -122 0 -128 19 -128 17 0 20 7 22 45 1 25 2
50 3 55 1 6 1 15 0 20 -5 19 -2 133 3 142 3 5 2 15 -3 23 -8 14 7 60 21 60 4
0 10 11 13 25 4 14 11 23 16 20 6 -3 10 1 10 10 0 9 3 14 8 12 4 -3 7 -100 6
-217 -1 -193 1 -212 17 -220 12 -7 20 -6 24 0 4 6 7 129 7 273 1 252 2 263 24
312 28 60 25 91 29 -295 1 -162 3 -299 4 -305 1 -9 41 -16 116 -19 l30 -1 1
343 c1 188 3 344 5 347 10 9 116 -36 134 -57 19 -22 20 -36 19 -353 -1 -326
-1 -330 20 -337 54 -16 51 -50 50 499 -1 280 2 514 6 522 22 41 26 -57 26
-536 l-1 -511 32 -10 c18 -6 35 -7 37 -4 2 4 3 94 2 199 0 106 3 193 7 193 5
0 5 5 2 11 -6 8 -14 321 -8 316 0 -1 20 -58 44 -127 l42 -125 1 -248 c1 -208
3 -249 16 -257 8 -5 19 -5 23 -1 5 5 9 93 9 197 0 104 2 182 5 174 14 -41 57
-130 62 -130 4 0 6 -59 5 -131 -1 -102 2 -133 13 -145 25 -25 33 -5 33 87 0
53 4 89 10 89 6 0 10 -5 10 -10 0 -6 11 -28 25 -49 19 -29 26 -52 26 -93 1
-63 10 -84 33 -75 10 4 14 16 11 37 -2 16 0 30 4 30 15 0 54 -54 63 -86 8 -30
13 -34 41 -34 19 0 43 -9 58 -22 41 -37 66 -51 227 -124 65 -31 192 -75 192
-68 0 3 10 0 21 -7 29 -15 96 -22 103 -10 4 6 4 21 0 35 -4 18 -15 26 -42 32
-139 28 -313 101 -426 177 -44 30 -134 106 -155 131 -9 10 -27 31 -41 46 -41
46 -54 64 -70 95 -8 17 -22 38 -30 47 -39 43 -162 315 -176 388 -3 13 -9 29
-13 35 -10 13 -35 97 -33 108 1 4 -2 16 -7 26 -6 10 -12 29 -15 42 -3 13 -12
52 -20 86 -15 61 -23 99 -32 158 -3 17 -7 46 -10 65 -3 19 -6 54 -7 78 l-1 43
-85 -3 -86 -3 0 -105 0 -105 -66 -3 c-87 -4 -92 3 -93 121 l-1 92 -75 3 -75 3
0 -58 c1 -32 -3 -78 -8 -103 -4 -25 -10 -54 -12 -65 -6 -34 -13 -59 -25 -90
-6 -16 -12 -32 -12 -35 -2 -21 -95 -211 -107 -220 -4 -3 -17 -21 -29 -40 -22
-36 -46 -66 -110 -135 -32 -34 -69 -65 -167 -140 -20 -16 -51 -20 -57 -7 -1 4
-29 25 -62 46 -32 22 -60 46 -63 53 -3 7 -10 13 -15 13 -10 0 -86 78 -133 135
-45 57 -84 123 -116 194 -16 36 -34 74 -39 84 -6 10 -8 22 -5 27 4 6 2 10 -3
10 -5 0 -9 6 -10 13 0 6 -8 41 -17 77 -16 65 -23 119 -24 198 l-1 43 -72 -3
-73 -3 0 -91 c0 -117 -6 -124 -94 -124 l-66 0 0 108 0 107 -86 3 -86 3 -2 -33z
m414 -188 c3 -5 1 -10 -4 -10 -6 0 -11 5 -11 10 0 6 2 10 4 10 3 0 8 -4 11
-10z m1621 -1236 c64 -26 206 -96 259 -128 28 -16 88 -49 134 -73 46 -23 80
-44 75 -44 -5 -1 -34 -3 -64 -4 -208 -8 -379 -21 -427 -30 -12 -3 -25 1 -30 7
-7 13 -13 266 -6 281 6 10 16 9 59 -9z m-2031 -140 l0 -139 -35 1 c-19 1 -69
4 -110 8 -112 9 -240 18 -287 20 -23 0 -44 4 -48 7 -3 4 27 23 67 44 40 21 78
41 83 45 27 22 309 160 319 157 7 -2 11 -51 11 -143z m307 79 c22 -23 23 -32
23 -151 l0 -126 -25 0 c-14 0 -30 3 -35 6 -6 3 -26 9 -45 13 -73 14 -69 6 -66
113 4 123 15 151 68 171 30 11 52 4 80 -26z m1472 4 c27 -27 34 -55 34 -149
l1 -98 -27 -6 c-15 -3 -45 -11 -67 -16 -66 -17 -73 -17 -77 -5 -2 7 -3 62 -2
123 1 121 18 170 58 177 25 4 63 -8 80 -26z"/>
<path d="M347 1474 c-1 -1 -41 -5 -88 -8 -47 -4 -95 -8 -105 -10 -10 -2 -38
-7 -61 -11 -47 -7 -64 -32 -37 -52 10 -7 29 -11 43 -8 30 5 82 11 166 22 109
13 380 7 505 -11 14 -2 48 -7 75 -11 50 -7 65 -10 108 -21 12 -3 33 -7 47 -10
43 -8 167 -44 227 -65 59 -21 79 -26 123 -35 14 -2 31 -7 38 -9 7 -3 17 5 21
18 7 18 4 25 -17 36 -22 12 -143 56 -182 66 -8 3 -51 14 -95 26 -44 11 -88 23
-97 25 -49 11 -67 15 -118 24 -30 5 -64 11 -75 13 -57 13 -468 31 -478 21z"/>
<path d="M3696 1473 c-1 -2 -43 -5 -92 -8 -49 -3 -102 -8 -119 -12 -16 -3 -37
-7 -45 -8 -55 -8 -112 -19 -178 -36 -42 -11 -86 -22 -97 -24 -69 -15 -279 -94
-287 -110 -22 -38 37 -41 136 -6 32 11 62 18 67 16 4 -3 9 -1 11 3 2 7 81 33
138 47 8 1 44 11 79 20 35 9 77 18 93 21 43 6 80 12 107 18 79 17 383 24 511
12 93 -9 142 -16 152 -22 5 -3 20 2 34 11 l25 16 -22 20 c-12 10 -29 19 -38
20 -9 0 -25 2 -36 4 -61 13 -429 27 -439 18z"/>
<path d="M348 1345 c-2 -2 -37 -6 -78 -9 -41 -4 -106 -14 -143 -22 -38 -8 -70
-14 -72 -14 -1 0 -6 -7 -9 -16 -7 -18 23 -46 39 -36 5 3 23 7 40 8 16 2 48 5
70 8 174 25 431 25 550 2 11 -2 43 -7 70 -10 84 -11 107 -16 196 -42 123 -35
127 -36 139 -14 8 16 6 22 -12 34 -25 15 -190 63 -247 72 -45 7 -80 13 -107
18 -71 14 -424 31 -436 21z"/>
<path d="M3708 1345 c-2 -1 -37 -5 -78 -9 -81 -6 -131 -13 -170 -23 -14 -3
-34 -7 -46 -9 -11 -1 -40 -8 -65 -14 -24 -7 -53 -14 -63 -16 -11 -2 -22 -7
-25 -11 -3 -5 -15 -8 -26 -7 -11 0 -26 -4 -32 -9 -7 -5 -13 -6 -13 -3 0 4 -9
2 -20 -4 -25 -14 -26 -47 -1 -55 11 -3 48 3 83 15 55 18 110 33 169 45 9 2 40
7 70 10 30 4 65 9 79 12 115 17 312 22 415 9 28 -3 66 -8 85 -11 122 -15 141
-15 146 0 11 27 -15 42 -94 54 -42 7 -90 15 -107 17 -33 6 -302 14 -307 9z"/>
<path d="M2740 1248 c-36 -11 -66 -24 -68 -29 -2 -5 -11 -9 -21 -9 -9 0 -25
-6 -36 -14 -11 -7 -23 -14 -28 -14 -40 -4 -348 -186 -409 -241 -9 -9 -23 -20
-30 -26 -120 -91 -143 -116 -122 -128 8 -4 20 -5 27 0 6 4 24 6 39 4 16 -1 28
2 28 8 0 6 5 11 10 11 6 0 18 8 28 18 72 69 91 72 163 27 21 -14 42 -25 47
-25 5 0 17 -9 27 -20 15 -16 31 -20 82 -20 40 0 62 4 58 10 -8 13 -118 88
-165 113 -62 33 -65 41 -26 62 l34 19 114 -57 c62 -31 144 -76 181 -101 62
-42 75 -46 128 -46 32 0 59 4 59 9 0 22 -338 220 -377 221 -7 0 -13 5 -13 11
0 5 -4 7 -10 4 -5 -3 -10 -4 -10 -1 0 3 16 14 36 24 35 18 37 18 97 -4 79 -27
89 -31 167 -67 36 -16 71 -31 79 -33 8 -1 17 -6 20 -11 3 -4 31 -21 61 -37 30
-16 57 -32 60 -35 3 -3 21 -15 40 -25 19 -10 44 -27 55 -37 17 -15 92 -25 149
-20 18 2 -18 32 -112 94 -118 77 -232 136 -340 176 -45 17 -98 39 -118 49
l-37 19 29 7 c16 4 32 12 35 18 8 13 167 -36 284 -87 17 -8 44 -17 60 -21 17
-4 42 -16 58 -26 15 -11 27 -17 27 -13 0 8 83 -36 178 -93 39 -24 72 -49 72
-55 0 -6 3 -8 6 -4 3 3 28 -10 55 -29 49 -34 52 -35 135 -32 82 3 85 4 67 21
-53 52 -163 129 -254 179 -65 37 -305 130 -442 173 -65 21 -115 40 -112 44 4
3 10 6 13 6 17 1 32 18 32 36 0 24 -24 24 -110 -3z"/>
<path d="M1401 1180 c-142 -44 -331 -114 -411 -153 -52 -25 -186 -106 -210
-127 -14 -12 -36 -31 -50 -43 -14 -13 -35 -30 -48 -39 -29 -20 -20 -26 43 -28
91 -3 99 0 192 65 81 58 291 177 318 181 6 1 71 25 145 54 74 29 146 57 160
62 58 23 75 35 75 53 0 33 -39 28 -214 -25z"/>
<path d="M337 1214 c-1 -1 -29 -5 -63 -9 -33 -3 -90 -13 -125 -21 -35 -8 -72
-15 -81 -15 -10 0 -18 -3 -19 -7 0 -4 -2 -15 -4 -24 -3 -18 15 -29 42 -24 71
14 112 20 138 22 17 1 30 3 30 4 0 10 257 14 365 6 69 -5 91 -8 145 -20 183
-40 200 -42 190 -26 -3 6 -2 10 4 10 6 0 8 6 5 14 -8 22 -125 58 -229 72 -11
1 -20 3 -20 4 0 7 -371 21 -378 14z"/>
<path d="M3698 1214 c-2 -1 -25 -5 -53 -8 -115 -14 -242 -44 -272 -64 -19 -11
-21 -18 -12 -34 11 -20 10 -20 92 -3 9 2 21 6 25 9 8 4 77 17 122 22 14 1 25
3 25 4 0 3 79 10 153 13 40 2 72 -1 72 -6 0 -5 6 -4 14 2 7 6 20 9 27 7 8 -3
43 -8 79 -11 36 -3 76 -7 90 -10 14 -2 43 -6 65 -10 22 -3 46 -8 53 -10 17 -6
42 5 42 19 -1 34 -57 54 -210 71 -60 7 -307 14 -312 9z"/>
<path d="M298 1065 c-2 -2 -28 -6 -58 -9 -30 -3 -71 -7 -90 -10 -19 -3 -48 -7
-64 -9 -37 -4 -56 -43 -26 -52 11 -4 36 -4 55 -1 125 20 190 26 317 26 135 1
228 -4 228 -10 0 -3 16 -5 35 -4 19 1 37 -1 40 -5 2 -4 14 -7 27 -5 13 1 29 3
36 3 14 1 16 37 2 46 -5 3 -27 8 -47 11 -21 3 -56 7 -78 11 -46 7 -371 14
-377 8z"/>
<path d="M3679 1065 c-3 -3 -24 -6 -47 -7 -23 -1 -40 -4 -37 -7 2 -4 -11 -6
-28 -5 -47 2 -77 -12 -77 -36 0 -11 3 -20 8 -21 4 0 15 -2 26 -4 10 -2 29 1
43 6 78 29 416 26 586 -6 29 -6 42 -3 57 10 19 17 19 19 3 30 -10 7 -43 15
-73 18 -30 4 -66 9 -80 13 -33 7 -375 16 -381 9z"/>
<path d="M50 885 c-24 -29 4 -40 101 -41 93 0 115 8 103 40 -9 23 -185 24
-204 1z"/>
<path d="M4015 879 c-4 -11 -4 -24 0 -27 9 -10 180 -11 195 -2 7 4 9 16 5 29
-6 19 -13 21 -100 21 -86 0 -94 -2 -100 -21z"/>
</g>
</svg>
